<?xml version="1.0" encoding="UTF-8"?>
<svg version="1.1" xmlns="http://www.w3.org/2000/svg" width="119" height="199">
<path d="M0 0 C39.27 0 78.54 0 119 0 C119 65.67 119 131.34 119 199 C79.73 199 40.46 199 0 199 C0 133.33 0 67.66 0 0 Z " fill="#FDFDFD" transform="translate(0,0)"/>
<path d="M0 0 C3.18449409 1.19418529 6.23369726 1.4175516 9.609375 1.69140625 C11.5 1.9375 11.5 1.9375 12.5 2.9375 C12.58631874 4.28017413 12.60706473 5.62724322 12.59765625 6.97265625 C12.59282227 8.18598633 12.59282227 8.18598633 12.58789062 9.42382812 C12.57532227 10.6990332 12.57532227 10.6990332 12.5625 12 C12.55798828 12.85400391 12.55347656 13.70800781 12.54882812 14.58789062 C12.53700373 16.70445663 12.51906769 18.82098685 12.5 20.9375 C11.84 20.9375 11.18 20.9375 10.5 20.9375 C10.066875 19.968125 9.63375 18.99875 9.1875 18 C7.7985139 14.66018235 7.7985139 14.66018235 4.5 13.9375 C3.3125 11.375 3.3125 11.375 2.5 8.9375 C1.283125 8.97875 0.06625 9.02 -1.1875 9.0625 C-4.71894127 9.07504508 -7.30003566 8.53748217 -10.5 6.9375 C-10.5 8.2575 -10.5 9.5775 -10.5 10.9375 C-11.82 10.9375 -13.14 10.9375 -14.5 10.9375 C-14.5 11.5975 -14.5 12.2575 -14.5 12.9375 C-13.51 13.2675 -12.52 13.5975 -11.5 13.9375 C-5.94057956 21.78291084 -4.15271407 29.4826527 -5.5 38.9375 C-7.47847448 47.84710076 -13.20898196 54.90105325 -20.39453125 60.3828125 C-29.16661661 65.72923021 -39.89211754 66.30857739 -49.8125 64.25 C-56.68563001 61.80363169 -61.02744316 58.68793022 -65.5 52.9375 C-67.62946603 52.06784494 -67.62946603 52.06784494 -69.5 51.9375 C-70.62862175 46.57654667 -70.59688221 41.38443314 -70.5 35.9375 C-69.51 35.9375 -68.52 35.9375 -67.5 35.9375 C-66.54761955 33.08035866 -66.44602352 31.55716875 -66.5625 28.625 C-66.59464641 24.68384985 -66.29565522 21.52881044 -64.5 17.9375 C-62.375 17.0625 -62.375 17.0625 -60.5 16.9375 C-60.42265625 16.37289062 -60.3453125 15.80828125 -60.265625 15.2265625 C-59.23662345 12.15005787 -57.54680687 10.58649091 -55.25 8.3125 C-54.48171875 7.53648438 -53.7134375 6.76046875 -52.921875 5.9609375 C-50.45566567 3.90045939 -48.49321659 3.02509733 -45.5 1.9375 C-44.7265625 1.43734375 -43.953125 0.9371875 -43.15625 0.421875 C-39.88225641 -1.40770965 -36.6499563 -2.15146357 -33 -2.8125 C-31.94703735 -3.00525513 -31.94703735 -3.00525513 -30.87280273 -3.2019043 C-20.74365497 -4.87615307 -9.52986065 -4.05019078 0 0 Z " fill="#F9F9FA" transform="translate(85.5,55.0625)"/>
<path d="M0 0 C0.33 0 0.66 0 1 0 C1.495 2.475 1.495 2.475 2 5 C5.96 5 9.92 5 14 5 C14.495 5.99 14.495 5.99 15 7 C12.69 7.66 10.38 8.32 8 9 C8.804375 9.928125 9.60875 10.85625 10.4375 11.8125 C14.07370961 16.00812647 14.39887349 19.96194281 14.3515625 25.36328125 C13.77251448 29.70614137 11.68607113 32.63460274 9 36 C8.4225 36.763125 7.845 37.52625 7.25 38.3125 C-0.55270338 44.16452754 -10.67330618 43.94244952 -20 43 C-30.43206353 41.21164625 -37.70520945 37.46855781 -45.0234375 29.91015625 C-46.81216672 28.18152267 -48.31711282 27.08351577 -50.5 25.9375 C-53.18166201 24.47844519 -55.60886009 22.91291193 -58 21 C-57.34 23.31 -56.68 25.62 -56 28 C-56.66 28 -57.32 28 -58 28 C-60.67927341 23.98108988 -60.15601248 21.75838077 -60 17 C-58.02 17.99 -58.02 17.99 -56 19 C-56.33 17.35 -56.66 15.7 -57 14 C-56.39671875 14.40992187 -55.7934375 14.81984375 -55.171875 15.2421875 C-53.97304688 16.05042969 -53.97304688 16.05042969 -52.75 16.875 C-51.96109375 17.40867187 -51.1721875 17.94234375 -50.359375 18.4921875 C-41.95048601 23.86608014 -31.71811178 24.38599678 -22.02734375 22.38671875 C-14.39004434 19.94836859 -7.97606332 15.62485186 -3.58984375 8.80859375 C-2.1232944 5.9543418 -1.01386625 3.04159874 0 0 Z " fill="#FBFBF7" transform="translate(78,96)"/>
<path d="M0 0 C1.21429688 -0.01417969 2.42859375 -0.02835937 3.6796875 -0.04296875 C10.37044442 0.40459889 14.63079814 3.42705395 19.125 8.1875 C24.00703322 14.45420346 24.00125127 21.54105468 23.125 29.1875 C21.18488702 38.09146224 15.39644374 45.16598622 8.23046875 50.6328125 C-0.54161661 55.97923021 -11.26711754 56.55857739 -21.1875 54.5 C-29.63329859 51.4938683 -35.13669505 46.86492745 -39.875 39.1875 C-41.23541252 35.20674747 -40.94441951 31.3526707 -40.875 27.1875 C-40.215 27.1875 -39.555 27.1875 -38.875 27.1875 C-38.4625 28.21875 -38.05 29.25 -37.625 30.3125 C-34.4598312 37.63380166 -30.6095156 42.2510845 -23.5 45.9375 C-15.56090599 48.72527347 -5.99930003 47.73736647 2.125 46.1875 C2.455 45.1975 2.785 44.2075 3.125 43.1875 C3.785 43.1875 4.445 43.1875 5.125 43.1875 C5.455 42.1975 5.785 41.2075 6.125 40.1875 C6.785 40.1875 7.445 40.1875 8.125 40.1875 C9.48671507 33.88956779 10.54697523 26.38694427 7.875 20.375 C7.2975 19.653125 6.72 18.93125 6.125 18.1875 C5.465 17.135625 4.805 16.08375 4.125 15 C2.25533231 12.01682798 2.25533231 12.01682798 -0.875 10.1875 C-0.875 9.5275 -0.875 8.8675 -0.875 8.1875 C-1.535 8.1875 -2.195 8.1875 -2.875 8.1875 C-2.875 7.5275 -2.875 6.8675 -2.875 6.1875 C-3.844375 5.919375 -4.81375 5.65125 -5.8125 5.375 C-6.823125 4.983125 -7.83375 4.59125 -8.875 4.1875 C-9.205 3.1975 -9.535 2.2075 -9.875 1.1875 C-6.41768736 0.03506245 -3.64240787 0.01925163 0 0 Z " fill="#0C166C" transform="translate(56.875,64.8125)"/>
<path d="M0 0 C0.84755859 0.04833984 1.69511719 0.09667969 2.56835938 0.14648438 C3.44943359 0.20255859 4.33050781 0.25863281 5.23828125 0.31640625 C6.13095703 0.36861328 7.02363281 0.42082031 7.94335938 0.47460938 C10.14619685 0.60418805 12.34856998 0.73914871 14.55078125 0.87890625 C14.0815625 2.03519531 13.61234375 3.19148438 13.12890625 4.3828125 C11.82047346 7.86456134 11.08098984 11.14170056 10.57739258 14.81518555 C9.33920029 23.77322811 6.67457952 29.51705212 -0.26171875 35.421875 C-12.3727804 44.02577505 -29.88869902 43.27456965 -43.99609375 41.41015625 C-55.39932897 38.70430382 -63.44706886 30.9724355 -70.44921875 21.87890625 C-71.90173343 18.8811632 -72.44921875 17.22269413 -72.44921875 13.87890625 C-65.92926525 17.01434456 -60.282806 20.99169303 -55.07421875 26.00390625 C-46.08401099 34.25281618 -34.187506 35.37267589 -22.48046875 35.15625 C-16.56807541 34.87858854 -11.29653847 33.40835417 -6.8046875 29.41796875 C-2.29911951 24.30213651 -1.00319483 20.07925782 -1.12109375 13.41796875 C-1.63236283 9.46171995 -3.18398726 7.14350458 -5.44921875 3.87890625 C-6.43921875 2.39390625 -6.43921875 2.39390625 -7.44921875 0.87890625 C-4.52252184 -0.09665939 -3.00860554 -0.18172785 0 0 Z " fill="#F2510F" transform="translate(92.44921875,103.12109375)"/>
<path d="M0 0 C1.53266582 3.06533164 1.10276471 6.26754272 1.0625 9.625 C1.05798828 10.33140625 1.05347656 11.0378125 1.04882812 11.765625 C1.03703875 13.51045275 1.01910324 15.255237 1 17 C0.34 16.67 -0.32 16.34 -1 16 C-1 15.34 -1 14.68 -1 14 C-1.66 14 -2.32 14 -3 14 C-3.495 12.515 -3.495 12.515 -4 11 C-5.6336861 9.63169753 -5.6336861 9.63169753 -7.5625 8.4375 C-9.50390625 7.18359375 -9.50390625 7.18359375 -11 6 C-11 5.34 -11 4.68 -11 4 C-17.99960356 2.3522334 -27.81743657 1.07653719 -34.53125 4.1640625 C-38.63298362 7.55320681 -40.56634431 10.95905639 -41.31640625 16.21875 C-41.76881731 22.45624712 -40.28128167 26.12748046 -36.703125 31.1875 C-34.92083011 33.0842542 -33.38601731 34.00409712 -31 35 C-31.33 35.99 -31.66 36.98 -32 38 C-36.53127904 38.92639483 -39.8590541 39.49217274 -44.1875 37.625 C-49.58916663 32.58344448 -53.67878971 26.79028146 -54.3125 19.3125 C-54.19648271 13.55382339 -52.08854192 9.3628435 -48.3046875 5.08203125 C-35.28192655 -7.28168309 -15.8467082 -6.71097071 0 0 Z " fill="#131C70" transform="translate(72,14)"/>
<path d="M0 0 C3.18449409 1.19418529 6.23369726 1.4175516 9.609375 1.69140625 C11.5 1.9375 11.5 1.9375 12.5 2.9375 C12.58631874 4.28017413 12.60706473 5.62724322 12.59765625 6.97265625 C12.59282227 8.18598633 12.59282227 8.18598633 12.58789062 9.42382812 C12.57532227 10.6990332 12.57532227 10.6990332 12.5625 12 C12.55798828 12.85400391 12.55347656 13.70800781 12.54882812 14.58789062 C12.53700373 16.70445663 12.51906769 18.82098685 12.5 20.9375 C11.84 20.9375 11.18 20.9375 10.5 20.9375 C10.066875 19.968125 9.63375 18.99875 9.1875 18 C7.7985139 14.66018235 7.7985139 14.66018235 4.5 13.9375 C4.0978125 12.7 4.0978125 12.7 3.6875 11.4375 C3.0996875 10.2 3.0996875 10.2 2.5 8.9375 C0.50899736 8.55406868 -1.49337159 8.22828088 -3.5 7.9375 C-5.30140019 7.27592382 -7.09303738 6.58727446 -8.875 5.875 C-18.11815529 2.68611142 -27.96340214 3.12170815 -37.5 4.9375 C-37.5 5.5975 -37.5 6.2575 -37.5 6.9375 C-38.221875 7.18371094 -38.94375 7.42992187 -39.6875 7.68359375 C-47.96867001 11.37561538 -53.99000837 18.74236536 -57.5 26.9375 C-58.21143088 28.92201771 -58.88991336 30.91952112 -59.5 32.9375 C-60.13815344 34.28471283 -60.79325371 35.62497118 -61.5 36.9375 C-62.16 36.9375 -62.82 36.9375 -63.5 36.9375 C-66.01893058 29.38070825 -64.6880557 22.63822283 -61.19140625 15.625 C-57.22671817 9.32544943 -52.49119258 4.53761946 -45.5 1.9375 C-44.7265625 1.43734375 -43.953125 0.9371875 -43.15625 0.421875 C-39.88225641 -1.40770965 -36.6499563 -2.15146357 -33 -2.8125 C-31.94703735 -3.00525513 -31.94703735 -3.00525513 -30.87280273 -3.2019043 C-20.74365497 -4.87615307 -9.52986065 -4.05019078 0 0 Z " fill="#F4510B" transform="translate(85.5,55.0625)"/>
<path d="M0 0 C1.21429688 -0.01417969 2.42859375 -0.02835937 3.6796875 -0.04296875 C8.52562172 0.28119238 11.17448755 1.38820544 14.875 4.5 C17.16766259 7.23845809 17.8249825 8.68729578 18.125 12.1875 C18.785 12.1875 19.445 12.1875 20.125 12.1875 C20.455 18.1275 20.785 24.0675 21.125 30.1875 C20.465 30.1875 19.805 30.1875 19.125 30.1875 C18.795 31.5075 18.465 32.8275 18.125 34.1875 C17.465 33.1975 16.805 32.2075 16.125 31.1875 C14.03149311 34.5894487 13.94557837 37.24022412 14.125 41.1875 C12.805 40.5275 11.485 39.8675 10.125 39.1875 C10.15980469 38.24648437 10.19460937 37.30546875 10.23046875 36.3359375 C10.25753906 35.09070313 10.28460938 33.84546875 10.3125 32.5625 C10.34730469 31.33273438 10.38210937 30.10296875 10.41796875 28.8359375 C9.99141661 23.52394149 7.67635054 19.70156678 4.625 15.4375 C4.2228125 14.86515625 3.820625 14.2928125 3.40625 13.703125 C2.01226657 11.91206081 2.01226657 11.91206081 -0.875 10.1875 C-0.875 9.5275 -0.875 8.8675 -0.875 8.1875 C-1.535 8.1875 -2.195 8.1875 -2.875 8.1875 C-2.875 7.5275 -2.875 6.8675 -2.875 6.1875 C-4.3290625 5.7853125 -4.3290625 5.7853125 -5.8125 5.375 C-6.823125 4.983125 -7.83375 4.59125 -8.875 4.1875 C-9.205 3.1975 -9.535 2.2075 -9.875 1.1875 C-6.41768736 0.03506245 -3.64240787 0.01925163 0 0 Z " fill="#01096A" transform="translate(56.875,64.8125)"/>
<path d="M0 0 C0 1.65 0 3.3 0 5 C-0.66 4.67 -1.32 4.34 -2 4 C-2 3.34 -2 2.68 -2 2 C-3.47906892 1.97310784 -4.95827483 1.95365379 -6.4375 1.9375 C-7.26121094 1.92589844 -8.08492187 1.91429687 -8.93359375 1.90234375 C-10.99163938 1.76732652 -10.99163938 1.76732652 -12 3 C-12.15620555 4.41327947 -12.25056173 5.8335459 -12.31640625 7.25390625 C-12.35830078 8.10791016 -12.40019531 8.96191406 -12.44335938 9.84179688 C-12.50233398 11.18854492 -12.50233398 11.18854492 -12.5625 12.5625 C-12.60568359 13.46419922 -12.64886719 14.36589844 -12.69335938 15.29492188 C-12.79978142 17.52978485 -12.90179988 19.76476308 -13 22 C-10.69 22.66 -8.38 23.32 -6 24 C-6.33 20.7 -6.66 17.4 -7 14 C-4.03 14 -1.06 14 2 14 C2 17.3 2 20.6 2 24 C-9.40558659 27.14636872 -9.40558659 27.14636872 -14.6875 24.8125 C-17.51175132 22.59889761 -18.66728513 21.36685862 -20 18 C-20.5405249 13.08344475 -20.64661843 8.63356235 -18.8125 4 C-13.59741629 -1.75457513 -7.3246876 -2.44156253 0 0 Z " fill="#6E82B6" transform="translate(84,167)"/>
<path d="M0 0 C1.53266582 3.06533164 1.10276471 6.26754272 1.0625 9.625 C1.05798828 10.33140625 1.05347656 11.0378125 1.04882812 11.765625 C1.03703875 13.51045275 1.01910324 15.255237 1 17 C0.34 16.67 -0.32 16.34 -1 16 C-1 15.34 -1 14.68 -1 14 C-1.66 14 -2.32 14 -3 14 C-3.495 12.515 -3.495 12.515 -4 11 C-5.6336861 9.63169753 -5.6336861 9.63169753 -7.5625 8.4375 C-9.50390625 7.18359375 -9.50390625 7.18359375 -11 6 C-11 5.34 -11 4.68 -11 4 C-15.099361 3.0672582 -19.12043288 2.71174738 -23.3125 2.4375 C-24.56675781 2.35371094 -25.82101563 2.26992188 -27.11328125 2.18359375 C-28.54220703 2.09271484 -28.54220703 2.09271484 -30 2 C-27.23776722 -0.76223278 -24.79293383 -0.57856291 -21 -1 C-21 -1.33 -21 -1.66 -21 -2 C-26.78591511 -2.10477512 -32.29309366 -1.99250545 -38 -1 C-27.88664572 -7.74223619 -10.56944036 -4.47608448 0 0 Z " fill="#010B66" transform="translate(72,14)"/>
<path d="M0 0 C2.23551759 3.35327639 2.17283528 3.90743657 1.625 7.6875 C1.45871094 8.89986328 1.45871094 8.89986328 1.2890625 10.13671875 C1.19367188 10.75160156 1.09828125 11.36648437 1 12 C-0.32 12.33 -1.64 12.66 -3 13 C-3.33 14.32 -3.66 15.64 -4 17 C-4.99 17 -5.98 17 -7 17 C-6.67 17.66 -6.34 18.32 -6 19 C-5.86584528 21.6723621 -5.95681459 24.32250488 -6 27 C-8.31 26.34 -10.62 25.68 -13 25 C-13.05791844 21.87507749 -13.09356746 18.75029234 -13.125 15.625 C-13.14175781 14.73554688 -13.15851563 13.84609375 -13.17578125 12.9296875 C-13.18222656 12.07890625 -13.18867187 11.228125 -13.1953125 10.3515625 C-13.20578613 9.56604004 -13.21625977 8.78051758 -13.22705078 7.97119141 C-13 6 -13 6 -11 4 C-4.73559322 3.43050847 -4.73559322 3.43050847 -2.0625 5.5 C-1.711875 5.995 -1.36125 6.49 -1 7 C-0.67 5.68 -0.34 4.36 0 3 C-3.96 2.67 -7.92 2.34 -12 2 C-12 1.67 -12 1.34 -12 1 C-7.95232429 0.22901415 -4.11983282 -0.37453026 0 0 Z " fill="#F7FCFB" transform="translate(84,164)"/>
<path d="M0 0 C0.99 0.33 1.98 0.66 3 1 C3.05285156 1.77988281 3.10570312 2.55976563 3.16015625 3.36328125 C3.73210205 6.22123441 3.73210205 6.22123441 6.43359375 7.29296875 C7.42488281 7.58816406 8.41617188 7.88335937 9.4375 8.1875 C14.84398496 9.84398496 14.84398496 9.84398496 17 12 C17.26991906 14.68839385 17.08737357 17.29141936 17 20 C16.34 20 15.68 20 15 20 C14.835 20.639375 14.67 21.27875 14.5 21.9375 C13 24 13 24 9.3125 24.875 C5.12713023 25.21931744 1.93352587 24.39312375 -2 23 C-2 21.35 -2 19.7 -2 18 C-1.34 18 -0.68 18 0 18 C0.4125 18.474375 0.825 18.94875 1.25 19.4375 C3.70054034 21.62548245 5.7761332 21.73134443 9 22 C9.99 21.67 10.98 21.34 12 21 C11.88638381 19.04382869 11.88638381 19.04382869 11 17 C8.72214886 15.75031682 8.72214886 15.75031682 6 14.9375 C3.25 14.02734375 3.25 14.02734375 1 13 C0.67 12.01 0.34 11.02 0 10 C-0.66 10 -1.32 10 -2 10 C-2.25 3.375 -2.25 3.375 0 0 Z " fill="#060F6C" transform="translate(40,168)"/>
<path d="M0 0 C0.61746094 0.20496094 1.23492187 0.40992188 1.87109375 0.62109375 C7.63596468 2.45497202 12.98597312 3.42723554 19 4 C20 5 20 5 20.11352539 6.76586914 C20.10828857 7.51473389 20.10305176 8.26359863 20.09765625 9.03515625 C20.09443359 9.84404297 20.09121094 10.65292969 20.08789062 11.48632812 C20.07951172 12.33646484 20.07113281 13.18660156 20.0625 14.0625 C20.05798828 14.91650391 20.05347656 15.77050781 20.04882812 16.65039062 C20.03700373 18.76695663 20.01906769 20.88348685 20 23 C19.34 23 18.68 23 18 23 C17.566875 22.030625 17.13375 21.06125 16.6875 20.0625 C15.2985139 16.72268235 15.2985139 16.72268235 12 16 C11.731875 15.175 11.46375 14.35 11.1875 13.5 C10.795625 12.675 10.40375 11.85 10 11 C8.01067774 10.60794379 6.0073975 10.28542315 4 10 C1.86247203 9.35250065 -0.26331123 8.66485947 -2.375 7.9375 C-3.43460937 7.57527344 -4.49421875 7.21304688 -5.5859375 6.83984375 C-6.38257812 6.56269531 -7.17921875 6.28554688 -8 6 C-4.73086376 4.96884721 -2.13958652 5.0361016 1.25 5.4375 C2.14203125 5.53933594 3.0340625 5.64117187 3.953125 5.74609375 C4.62859375 5.82988281 5.3040625 5.91367187 6 6 C6.33 5.34 6.66 4.68 7 4 C6.01 4 5.02 4 4 4 C4 3.34 4 2.68 4 2 C2.68 1.67 1.36 1.34 0 1 C0 0.67 0 0.34 0 0 Z " fill="#F3803D" transform="translate(78,53)"/>
<path d="M0 0 C0.66 0.66 1.32 1.32 2 2 C-4.75 1.125 -4.75 1.125 -7 0 C-7 1.32 -7 2.64 -7 4 C-8.32 4 -9.64 4 -11 4 C-11 4.66 -11 5.32 -11 6 C-10.01 6.33 -9.02 6.66 -8 7 C-8.33 7.99 -8.66 8.98 -9 10 C-9.33 9.01 -9.66 8.02 -10 7 C-13.48667404 4.53171095 -17.6169344 4.35159169 -21.75 3.875 C-22.44738281 3.78863281 -23.14476562 3.70226562 -23.86328125 3.61328125 C-25.57472332 3.40228154 -27.28726629 3.20024499 -29 3 C-28.34 2.67 -27.68 2.34 -27 2 C-27 1.34 -27 0.68 -27 0 C-29.31 0 -31.62 0 -34 0 C-34 -0.66 -34 -1.32 -34 -2 C-23.08091212 -6.2256532 -10.46965136 -4.96312193 0 0 Z " fill="#EDEEED" transform="translate(82,62)"/>
<path d="M0 0 C4.95 0 9.9 0 15 0 C14.125 11.625 14.125 11.625 13 15 C12.01 15.495 12.01 15.495 11 16 C10.59270772 18.32156597 10.25561323 20.6568787 10 23 C6.125 22.125 6.125 22.125 5 21 C4.47594641 15.62845068 5.98109914 11.87901042 8 7 C6.68 6.34 5.36 5.68 4 5 C4.33 4.34 4.66 3.68 5 3 C3.35 3 1.7 3 0 3 C0 2.01 0 1.02 0 0 Z " fill="#FA4403" transform="translate(88,105)"/>
<path d="M0 0 C0.33 0.99 0.66 1.98 1 3 C0.07380859 3.00386719 0.07380859 3.00386719 -0.87109375 3.0078125 C-7.96531149 3.33174938 -12.65675009 5.30065124 -18 10 C-20.01119746 12.56399774 -20.01119746 12.56399774 -21 15 C-21.33 15.66 -21.66 16.32 -22 17 C-22.66 17 -23.32 17 -24 17 C-24.33 17.66 -24.66 18.32 -25 19 C-25.99 15.7 -26.98 12.4 -28 9 C-26.68 9 -25.36 9 -24 9 C-24.33 8.01 -24.66 7.02 -25 6 C-22.04645957 2.14755596 -19.2416808 1.1766304 -14.66015625 0.3046875 C-9.77928195 -0.25435537 -4.90354874 -0.14934666 0 0 Z " fill="#0B196F" transform="translate(53,11)"/>
<path d="M0 0 C0 0.66 0 1.32 0 2 C0.99 2 1.98 2 3 2 C2.67 2.99 2.34 3.98 2 5 C1.41299316 4.9285376 0.82598633 4.8570752 0.22119141 4.78344727 C-6.41772111 4.03950962 -12.94919531 3.87956578 -19.625 3.9375 C-21.13126953 3.94426758 -21.13126953 3.94426758 -22.66796875 3.95117188 C-25.11204471 3.96281033 -27.5559882 3.9791576 -30 4 C-30 3.67 -30 3.34 -30 3 C-31.98 2.34 -33.96 1.68 -36 1 C-36 0.67 -36 0.34 -36 0 C-6.21388368 -3.78236398 -6.21388368 -3.78236398 0 0 Z " fill="#F4530F" transform="translate(82,55)"/>
<path d="M0 0 C8.27060165 3.97732304 15.49307109 9.55460233 22 16 C22 16.33 22 16.66 22 17 C20.02 17 18.04 17 16 17 C16 18.32 16 19.64 16 21 C12.02667977 19.41991219 9.71759548 16.82284039 6.875 13.6875 C6.00617187 12.74261719 5.13734375 11.79773438 4.2421875 10.82421875 C1.37903521 7.21784401 0 4.61500867 0 0 Z " fill="#EF5117" transform="translate(20,117)"/>
<path d="M0 0 C0.99 0.33 1.98 0.66 3 1 C2.67 1.33 2.34 1.66 2 2 C1.63239269 4.32817964 1.29758419 6.6618385 1 9 C1.66 9 2.32 9 3 9 C3.99 10.485 3.99 10.485 5 12 C7.1141144 12.93685108 7.1141144 12.93685108 9.5 13.5625 C13.79726651 14.79726651 13.79726651 14.79726651 16 17 C15.625 19.125 15.625 19.125 15 21 C8.76952141 22.34382872 8.76952141 22.34382872 5.0625 20.6875 C4.381875 20.130625 3.70125 19.57375 3 19 C3 18.34 3 17.68 3 17 C2.34 17 1.68 17 1 17 C0.67 17.66 0.34 18.32 0 19 C-0.19425873 16.20865148 -0.38069517 13.41716313 -0.5625 10.625 C-0.61857422 9.8309375 -0.67464844 9.036875 -0.73242188 8.21875 C-1.11328125 2.2265625 -1.11328125 2.2265625 0 0 Z " fill="#E0E9F7" transform="translate(37,169)"/>
<path d="M0 0 C3.99404945 3.59464451 5.73022763 6.60655443 6.3359375 11.98046875 C6.45018417 21.36012076 4.88217564 28.56722218 -1 36 C-2.65 35.67 -4.3 35.34 -6 35 C-5.67 34.34 -5.34 33.68 -5 33 C-4.34 33.33 -3.68 33.66 -3 34 C-3.33 33.34 -3.66 32.68 -4 32 C-4.13415472 29.3276379 -4.04318541 26.67749512 -4 24 C-3.34 24.66 -2.68 25.32 -2 26 C-1.67 25.34 -1.34 24.68 -1 24 C-0.34 24.33 0.32 24.66 1 25 C3.03120707 21.95318939 3.24659875 21.39881676 3.1953125 17.98828125 C3.18886719 17.23095703 3.18242188 16.47363281 3.17578125 15.69335938 C3.15902344 14.90767578 3.14226562 14.12199219 3.125 13.3125 C3.11597656 12.51521484 3.10695313 11.71792969 3.09765625 10.89648438 C3.07411585 8.930861 3.03824547 6.96539225 3 5 C2.01 5.33 1.02 5.66 0 6 C0 4.02 0 2.04 0 0 Z " fill="#1F2D7C" transform="translate(74,72)"/>
<path d="M0 0 C1.21429688 -0.01417969 2.42859375 -0.02835937 3.6796875 -0.04296875 C9.35455384 0.33664249 12.35080228 1.99394697 16.125 6.1875 C15.135 6.6825 15.135 6.6825 14.125 7.1875 C12 6.25 12 6.25 10.125 5.1875 C10.125 4.1975 10.125 3.2075 10.125 2.1875 C10.125 3.5075 10.125 4.8275 10.125 6.1875 C9.135 6.5175 8.145 6.8475 7.125 7.1875 C7.125 6.1975 7.125 5.2075 7.125 4.1875 C6.135 4.6825 6.135 4.6825 5.125 5.1875 C2.7920134 5.22772391 0.45793334 5.23070247 -1.875 5.1875 C-1.545 6.1775 -1.215 7.1675 -0.875 8.1875 C-1.535 8.1875 -2.195 8.1875 -2.875 8.1875 C-2.875 7.5275 -2.875 6.8675 -2.875 6.1875 C-4.3290625 5.7853125 -4.3290625 5.7853125 -5.8125 5.375 C-6.823125 4.983125 -7.83375 4.59125 -8.875 4.1875 C-9.205 3.1975 -9.535 2.2075 -9.875 1.1875 C-6.41768736 0.03506245 -3.64240787 0.01925163 0 0 Z " fill="#020D70" transform="translate(56.875,64.8125)"/>
<path d="M0 0 C0.33 0 0.66 0 1 0 C0.98839844 1.05960937 0.97679688 2.11921875 0.96484375 3.2109375 C0.95546524 4.59895658 0.94636511 5.98697755 0.9375 7.375 C0.92912109 8.07367188 0.92074219 8.77234375 0.91210938 9.4921875 C0.8164558 13.37295376 0.8164558 13.37295376 2 17 C2.99 17.66 3.98 18.32 5 19 C-3.261959 26.66742597 -3.261959 26.66742597 -8 28 C-7.125 22.125 -7.125 22.125 -6 21 C-6.66 20.34 -7.32 19.68 -8 19 C-7.01 18.67 -6.02 18.34 -5 18 C-4.67 17.01 -4.34 16.02 -4 15 C-3.34 15 -2.68 15 -2 15 C-1.34 10.05 -0.68 5.1 0 0 Z " fill="#121E6C" transform="translate(67,90)"/>
<path d="M0 0 C0.87840996 3.09720845 0.99435406 4.90645403 0 8 C-0.99 8 -1.98 8 -3 8 C-3.20625 8.5775 -3.4125 9.155 -3.625 9.75 C-5.57200975 12.93601596 -7.73886888 14.2156075 -11 16 C-14.5625 16.6875 -14.5625 16.6875 -18 17 C-18.77303467 17.16943115 -19.54606934 17.3388623 -20.3425293 17.51342773 C-23.27143557 18.04969877 -25.98026986 18.11292169 -28.95703125 18.09765625 C-30.06884766 18.09443359 -31.18066406 18.09121094 -32.32617188 18.08789062 C-33.47666016 18.07951172 -34.62714844 18.07113281 -35.8125 18.0625 C-37.56723633 18.05573242 -37.56723633 18.05573242 -39.35742188 18.04882812 C-42.23833358 18.0370693 -45.11914044 18.02063426 -48 18 C-48 17.67 -48 17.34 -48 17 C-47.39639648 16.98541748 -46.79279297 16.97083496 -46.17089844 16.95581055 C-24.73995843 17.05675149 -24.73995843 17.05675149 -6 8 C-3.79620968 5.45570989 -1.84369404 2.81442688 0 0 Z " fill="#FDD9B0" transform="translate(100,128)"/>
<path d="M0 0 C0 6.27 0 12.54 0 19 C-0.99 19.33 -1.98 19.66 -3 20 C-5.85514063 16.8058585 -6.38846809 14.75421286 -6.3125 10.5 C-6.30863281 9.5615625 -6.30476563 8.623125 -6.30078125 7.65625 C-5.99156678 4.92552477 -5.54056031 3.26704527 -4 1 C-1 0 -1 0 0 0 Z " fill="#0A1777" transform="translate(70,169)"/>
<path d="M0 0 C0.66 0.33 1.32 0.66 2 1 C2 1.99 2 2.98 2 4 C0.68 4 -0.64 4 -2 4 C-1.79375 5.11375 -1.5875 6.2275 -1.375 7.375 C-1.25125 8.57125 -1.1275 9.7675 -1 11 C-1.66 11.66 -2.32 12.32 -3 13 C-3.45811675 14.97235333 -3.45811675 14.97235333 -3.625 17.125 C-3.74875 18.40375 -3.8725 19.6825 -4 21 C-4.99 21 -5.98 21 -7 21 C-7 21.66 -7 22.32 -7 23 C-6.34 23.33 -5.68 23.66 -5 24 C-5.99 24 -6.98 24 -8 24 C-9.80257249 18.59228252 -9.71837012 13.93467509 -7.3125 8.8125 C-5.34911313 5.24462494 -3.03342564 2.69637835 0 0 Z " fill="#151E7C" transform="translate(27,16)"/>
<path d="M0 0 C0.60328125 0.40992187 1.2065625 0.81984375 1.828125 1.2421875 C2.62734375 1.78101562 3.4265625 2.31984375 4.25 2.875 C5.03890625 3.40867187 5.8278125 3.94234375 6.640625 4.4921875 C10.79861078 7.14944331 14.07882799 8.32893109 19 9 C17.375 10.5625 17.375 10.5625 15 12 C12.1875 11.8125 12.1875 11.8125 9 11 C7.783125 10.690625 6.56625 10.38125 5.3125 10.0625 C2 9 2 9 -1 7 C-0.34 9.31 0.32 11.62 1 14 C0.34 14 -0.32 14 -1 14 C-3.67927341 9.98108988 -3.15601248 7.75838077 -3 3 C-1.02 3.99 -1.02 3.99 1 5 C0.67 3.35 0.34 1.7 0 0 Z " fill="#E8F4FA" transform="translate(21,110)"/>
<path d="M0 0 C3.96388638 -0.07622858 7.1273408 0.0318352 11 1 C11 6.28 11 11.56 11 17 C8 14 8 14 6 11 C6 10.01 6 9.02 6 8 C5.34 8 4.68 8 4 8 C4 7.01 4 6.02 4 5 C3.34 5 2.68 5 2 5 C1.34 3.35 0.68 1.7 0 0 Z " fill="#F44C07" transform="translate(86,58)"/>
<path d="M0 0 C0.33 0 0.66 0 1 0 C1 1.65 1 3.3 1 5 C0.34 5 -0.32 5 -1 5 C-1.13277344 5.85851562 -1.26554687 6.71703125 -1.40234375 7.6015625 C-1.98417399 10.91000896 -2.73097458 14.12120487 -3.5625 17.375 C-3.83191406 18.43460938 -4.10132813 19.49421875 -4.37890625 20.5859375 C-4.58386719 21.38257812 -4.78882813 22.17921875 -5 23 C-5.66 23 -6.32 23 -7 23 C-8.71730409 17.84808774 -8.54551077 12.33081874 -7.3125 7.0625 C-5.63594776 4.4279179 -3.71927676 3.46422595 -1 2 C-0.67 1.34 -0.34 0.68 0 0 Z " fill="#F45E1E" transform="translate(29,69)"/>
<path d="M0 0 C0.99 0.66 1.98 1.32 3 2 C3.40843923 4.71203652 3.13336867 7.2437142 3 10 C2.34 10 1.68 10 1 10 C0.835 10.639375 0.67 11.27875 0.5 11.9375 C-1 14 -1 14 -4.6875 14.875 C-8.87286977 15.21931744 -12.06647413 14.39312375 -16 13 C-16 11.35 -16 9.7 -16 8 C-15.34 8 -14.68 8 -14 8 C-13.5875 8.474375 -13.175 8.94875 -12.75 9.4375 C-10.29945966 11.62548245 -8.2238668 11.73134443 -5 12 C-4.01 11.67 -3.02 11.34 -2 11 C-2.11416473 9.04660033 -2.11416473 9.04660033 -3 7 C-5.27499876 5.71369622 -5.27499876 5.71369622 -8 4.875 C-12.90566038 3.18867925 -12.90566038 3.18867925 -14 1 C-12.05954312 1.4241929 -10.12268239 1.86485995 -8.1875 2.3125 C-6.56908203 2.67794922 -6.56908203 2.67794922 -4.91796875 3.05078125 C-2.0552844 3.98201592 -0.84602934 4.68760535 1 7 C0.67 4.69 0.34 2.38 0 0 Z " fill="#445799" transform="translate(54,178)"/>
<path d="M0 0 C0.75 1.625 0.75 1.625 1 4 C-0.94093997 7.88187994 -2.09915232 9.6467264 -6.1875 11.25 C-7.115625 11.4975 -8.04375 11.745 -9 12 C-9.33 12.66 -9.66 13.32 -10 14 C-7.36 14 -4.72 14 -2 14 C-5.09423168 17.09423168 -8.5523812 17.93706005 -12.875 18.125 C-13.926875 18.063125 -13.926875 18.063125 -15 18 C-14.67 17.34 -14.34 16.68 -14 16 C-18.95 15.67 -23.9 15.34 -29 15 C-29 14.67 -29 14.34 -29 14 C-28.26136719 13.98582031 -27.52273437 13.97164062 -26.76171875 13.95703125 C-18.50419002 13.56881198 -10.57029132 12.13454292 -4.23828125 6.40625 C-2.53024075 4.40945767 -1.17473778 2.34947556 0 0 Z " fill="#EF5513" transform="translate(90,126)"/>
<path d="M0 0 C0.66 0 1.32 0 2 0 C5.19585333 6.5914475 4.18019305 12.32315878 2 19 C1.67 18.34 1.34 17.68 1 17 C0.34 16.7525 -0.32 16.505 -1 16.25 C-3 15 -3 15 -3.75 11.875 C-3.8325 10.92625 -3.915 9.9775 -4 9 C-3.01 9 -2.02 9 -1 9 C-1.020625 7.700625 -1.04125 6.40125 -1.0625 5.0625 C-1.08399454 3.70834367 -1.07148199 2.35243917 -1 1 C-0.67 0.67 -0.34 0.34 0 0 Z " fill="#010B62" transform="translate(24,28)"/>
<path d="M0 0 C0.66 0 1.32 0 2 0 C2.4125 1.03125 2.825 2.0625 3.25 3.125 C5.34631084 8.00979978 8.02030527 12.41827475 12 16 C11.67 16.66 11.34 17.32 11 18 C9.68 17.67 8.36 17.34 7 17 C6.67 17.66 6.34 18.32 6 19 C5.17977251 17.92250558 4.36913831 16.83770492 3.5625 15.75 C3.11003906 15.14671875 2.65757813 14.5434375 2.19140625 13.921875 C-0.54516934 9.50746455 -0.08382374 5.02942461 0 0 Z " fill="#0C1C67" transform="translate(16,92)"/>
<path d="M0 0 C0.77794922 -0.01224609 1.55589844 -0.02449219 2.35742188 -0.03710938 C7.67063171 -0.05040348 12.20684681 0.71123685 17.3125 2.1875 C17.3125 2.5175 17.3125 2.8475 17.3125 3.1875 C14.6725 3.1875 12.0325 3.1875 9.3125 3.1875 C9.3125 4.5075 9.3125 5.8275 9.3125 7.1875 C4.0325 6.8575 -1.2475 6.5275 -6.6875 6.1875 C-3.92526722 3.42526722 -1.48043383 3.60893709 2.3125 3.1875 C2.3125 2.8575 2.3125 2.5275 2.3125 2.1875 C-3.47341511 2.08272488 -8.98059366 2.19499455 -14.6875 3.1875 C-9.82530624 -0.0539625 -5.66162261 0.0045769 0 0 Z " fill="#304089" transform="translate(48.6875,9.8125)"/>
<path d="M0 0 C0.99 0.33 1.98 0.66 3 1 C2.67 2.32 2.34 3.64 2 5 C1.34 5 0.68 5 0 5 C0 5.99 0 6.98 0 8 C-3.61867559 9.2062252 -6.92506251 9.10816918 -10.6875 9.0625 C-11.38939453 9.05798828 -12.09128906 9.05347656 -12.81445312 9.04882812 C-14.54300538 9.03706927 -16.27151365 9.01913454 -18 9 C-16.68 8.67 -15.36 8.34 -14 8 C-14 7.34 -14 6.68 -14 6 C-13.34 6 -12.68 6 -12 6 C-12 6.66 -12 7.32 -12 8 C-11.34 8 -10.68 8 -10 8 C-10.33 6.68 -10.66 5.36 -11 4 C-10.37351562 3.96261719 -9.74703125 3.92523438 -9.1015625 3.88671875 C-8.28429688 3.82097656 -7.46703125 3.75523438 -6.625 3.6875 C-5.81289063 3.62949219 -5.00078125 3.57148437 -4.1640625 3.51171875 C-1.62078662 3.17009472 -1.62078662 3.17009472 0 0 Z " fill="#010B64" transform="translate(59,110)"/>
<path d="M0 0 C2 3 2 3 2 6 C2.66 6 3.32 6 4 6 C4.33 8.31 4.66 10.62 5 13 C6.32 13 7.64 13 9 13 C9 14.32 9 15.64 9 17 C10.32 17.66 11.64 18.32 13 19 C12.01 19.33 11.02 19.66 10 20 C0 8.95890411 0 8.95890411 0 3 C-0.66 3 -1.32 3 -2 3 C-1.69052329 4.93798521 -1.37731166 6.87537426 -1.0625 8.8125 C-0.80146484 10.43091797 -0.80146484 10.43091797 -0.53515625 12.08203125 C-0.06128079 15.04933356 -0.06128079 15.04933356 1 18 C0.01 18 -0.98 18 -2 18 C-3.12862175 12.63904667 -3.09688221 7.44693314 -3 2 C-2.01 2 -1.02 2 0 2 C0 1.34 0 0.68 0 0 Z " fill="#DBE9F9" transform="translate(18,89)"/>
<path d="M0 0 C0 0.66 0 1.32 0 2 C0.63808594 2.12117188 1.27617188 2.24234375 1.93359375 2.3671875 C2.75988281 2.53476562 3.58617188 2.70234375 4.4375 2.875 C5.26121094 3.03742187 6.08492187 3.19984375 6.93359375 3.3671875 C7.95646484 3.68042969 7.95646484 3.68042969 9 4 C9.495 4.99 9.495 4.99 10 6 C8.76765625 5.77183594 7.5353125 5.54367188 6.265625 5.30859375 C-3.05509791 3.66037689 -11.55596291 2.44902806 -21 4 C-22.2375 4.185625 -23.475 4.37125 -24.75 4.5625 C-25.4925 4.706875 -26.235 4.85125 -27 5 C-26 3 -26 3 -24.375 2.375 C-21.2339425 1.87904355 -18.17398169 1.93896189 -15 2 C-15 1.34 -15 0.68 -15 0 C-9.76528314 -0.75612577 -5.22745859 -1.2063366 0 0 Z " fill="#FDD6B0" transform="translate(75,49)"/>
<path d="M0 0 C0.33 0.66 0.66 1.32 1 2 C0.69320313 2.72574219 0.38640625 3.45148438 0.0703125 4.19921875 C-1.21778594 7.56989972 -1.19765031 10.21630945 -1.125 13.8125 C-1.10695313 14.97394531 -1.08890625 16.13539062 -1.0703125 17.33203125 C-1.04710937 18.21246094 -1.02390625 19.09289062 -1 20 C-0.34 20 0.32 20 1 20 C1.66 18.68 2.32 17.36 3 16 C3 19.3 3 22.6 3 26 C2.34 26 1.68 26 1 26 C1 25.34 1 24.68 1 24 C-0.32 23.67 -1.64 23.34 -3 23 C-4.2696477 15.54081974 -5.19250099 8.09444665 -2 1 C-1.34 0.67 -0.68 0.34 0 0 Z " fill="#FEF0D2" transform="translate(23,72)"/>
<path d="M0 0 C0.99386719 0.47953125 0.99386719 0.47953125 2.0078125 0.96875 C2.0078125 1.29875 2.0078125 1.62875 2.0078125 1.96875 C0.0278125 1.96875 -1.9521875 1.96875 -3.9921875 1.96875 C-3.9921875 1.30875 -3.9921875 0.64875 -3.9921875 -0.03125 C-7.2921875 -0.03125 -10.5921875 -0.03125 -13.9921875 -0.03125 C-14.3221875 0.95875 -14.6521875 1.94875 -14.9921875 2.96875 C-18.4856472 4.71547985 -21.06064318 5.96875 -24.9921875 5.96875 C-24.9921875 6.95875 -24.9921875 7.94875 -24.9921875 8.96875 C-25.6521875 8.96875 -26.3121875 8.96875 -26.9921875 8.96875 C-26.21559012 4.86260292 -24.75489154 2.81432579 -21.55859375 0.171875 C-15.47513043 -2.68003779 -6.25759702 -2.15666529 0 0 Z " fill="#D2E1F4" transform="translate(58.9921875,17.03125)"/>
<path d="M0 0 C1.9375 1.375 1.9375 1.375 4 4 C4.27734375 6.140625 4.27734375 6.140625 4.375 8.625 C4.71531681 14.80588906 7.53216392 19.01564845 11 24 C9.02 23.67 7.04 23.34 5 23 C5 21.35 5 19.7 5 18 C4.34 18 3.68 18 3 18 C0.88838269 8.58997722 0.88838269 8.58997722 0 4 C-0.99 3.67 -1.98 3.34 -3 3 C-2.01 3 -1.02 3 0 3 C0 2.01 0 1.02 0 0 Z " fill="#0F1E77" transform="translate(26,24)"/>
<path d="M0 0 C0.84755859 0.04833984 1.69511719 0.09667969 2.56835938 0.14648438 C3.44943359 0.20255859 4.33050781 0.25863281 5.23828125 0.31640625 C6.13095703 0.36861328 7.02363281 0.42082031 7.94335938 0.47460938 C10.14619685 0.60418805 12.34856998 0.73914871 14.55078125 0.87890625 C14.09058594 2.02359375 13.63039063 3.16828125 13.15625 4.34765625 C11.54808983 8.63608336 10.6266674 12.8736765 9.86328125 17.37890625 C9.73373047 18.1059375 9.60417969 18.83296875 9.47070312 19.58203125 C9.15728387 21.34646557 8.85303815 23.11252552 8.55078125 24.87890625 C8.22078125 24.87890625 7.89078125 24.87890625 7.55078125 24.87890625 C7.06419842 16.93138666 8.89263665 9.61691438 10.55078125 1.87890625 C5.60078125 1.87890625 0.65078125 1.87890625 -4.44921875 1.87890625 C-4.77921875 2.53890625 -5.10921875 3.19890625 -5.44921875 3.87890625 C-6.10921875 2.88890625 -6.76921875 1.89890625 -7.44921875 0.87890625 C-4.52252184 -0.09665939 -3.00860554 -0.18172785 0 0 Z " fill="#E5722D" transform="translate(92.44921875,103.12109375)"/>
<path d="M0 0 C2.4375 0.375 2.4375 0.375 5 1 C6.53266582 4.06533164 6.10276471 7.26754272 6.0625 10.625 C6.05798828 11.33140625 6.05347656 12.0378125 6.04882812 12.765625 C6.03703875 14.51045275 6.01910324 16.255237 6 18 C5.34 17.67 4.68 17.34 4 17 C4 16.34 4 15.68 4 15 C3.34 15 2.68 15 2 15 C1.67 14.01 1.34 13.02 1 12 C-0.29355827 10.62804426 -1.62298702 9.28817344 -3 8 C-2.01 8.33 -1.02 8.66 0 9 C0.33 8.34 0.66 7.68 1 7 C1.99 7 2.98 7 4 7 C4 5.35 4 3.7 4 2 C2.68 1.67 1.36 1.34 0 1 C0 0.67 0 0.34 0 0 Z " fill="#384692" transform="translate(67,13)"/>
<path d="M0 0 C6.0546875 -0.1953125 6.0546875 -0.1953125 8 0 C8.66 0.66 9.32 1.32 10 2 C9.625 4.125 9.625 4.125 9 6 C2.375 7.25 2.375 7.25 -1 5 C-0.67 3.35 -0.34 1.7 0 0 Z " fill="#E2F2FC" transform="translate(43,184)"/>
<path d="M0 0 C0 0.33 0 0.66 0 1 C-0.83772949 1.08040527 -1.67545898 1.16081055 -2.53857422 1.24365234 C-5.64414322 1.545972 -8.74878815 1.85621538 -11.85302734 2.171875 C-13.19711182 2.30690015 -14.54151866 2.43875537 -15.88623047 2.56738281 C-17.81820012 2.75273783 -19.74897504 2.95041571 -21.6796875 3.1484375 C-23.42354736 3.32125244 -23.42354736 3.32125244 -25.20263672 3.49755859 C-28.12903185 3.74838863 -28.12903185 3.74838863 -30 6 C-32.125 5.625 -32.125 5.625 -34 5 C-30.0221889 2.27672932 -26.185739 1.10067134 -21.5 0.25 C-20.80455078 0.12004639 -20.10910156 -0.00990723 -19.39257812 -0.14379883 C-12.82620683 -1.24742208 -6.58744748 -0.93622969 0 0 Z " fill="#F06222" transform="translate(74,52)"/>
<path d="M0 0 C0.99 0.33 1.98 0.66 3 1 C3 6.61 3 12.22 3 18 C2.01 18.33 1.02 18.66 0 19 C-3.67230705 15.92000054 -4.56802365 13.7517398 -5 9 C-4.01 9.495 -4.01 9.495 -3 10 C-3 10.99 -3 11.98 -3 13 C-2.34 13 -1.68 13 -1 13 C-0.67 13.66 -0.34 14.32 0 15 C0 10.05 0 5.1 0 0 Z " fill="#E5F2FB" transform="translate(72,15)"/>
<path d="M0 0 C0.99 0.33 1.98 0.66 3 1 C2.6875 3.375 2.6875 3.375 2 6 C-1.20380017 8.13586678 -2.01939967 8.23132175 -5.6875 8.125 C-6.89986328 8.09792969 -6.89986328 8.09792969 -8.13671875 8.0703125 C-9.05904297 8.03550781 -9.05904297 8.03550781 -10 8 C-9.67 7.01 -9.34 6.02 -9 5 C-6.68895182 3.94952356 -4.35416349 2.94992562 -2 2 C-1.34 1.34 -0.68 0.68 0 0 Z " fill="#FA4404" transform="translate(90,132)"/>
<path d="M0 0 C0.33 0.99 0.66 1.98 1 3 C0.42032471 3.02505615 -0.15935059 3.0501123 -0.7565918 3.07592773 C-3.40042107 3.19246234 -6.04394409 3.31492682 -8.6875 3.4375 C-10.05551758 3.49647461 -10.05551758 3.49647461 -11.45117188 3.55664062 C-12.33740234 3.59853516 -13.22363281 3.64042969 -14.13671875 3.68359375 C-14.94842529 3.72025146 -15.76013184 3.75690918 -16.59643555 3.79467773 C-19.12144485 4.01037431 -21.52600697 4.45899452 -24 5 C-18.21794804 -1.57460737 -8.01650963 -0.24415765 0 0 Z " fill="#182472" transform="translate(53,11)"/>
<path d="M0 0 C0.77988281 -0.01417969 1.55976562 -0.02835938 2.36328125 -0.04296875 C4.8907668 0.20765587 6.50468031 0.92376228 8.6875 2.1875 C8.6875 3.1775 8.6875 4.1675 8.6875 5.1875 C8.00042969 5.08050781 7.31335937 4.97351563 6.60546875 4.86328125 C5.70441406 4.74339844 4.80335937 4.62351563 3.875 4.5 C2.98167969 4.37238281 2.08835937 4.24476563 1.16796875 4.11328125 C-1.38274209 3.93858118 -1.38274209 3.93858118 -3.13671875 5.66796875 C-3.71873047 6.42013672 -3.71873047 6.42013672 -4.3125 7.1875 C-4.69383299 5.1960944 -5.02575582 3.19470923 -5.3125 1.1875 C-3.74222683 -0.38277317 -2.16980053 0.01775614 0 0 Z " fill="#C7D4EC" transform="translate(46.3125,165.8125)"/>
<path d="M0 0 C2.31 0 4.62 0 7 0 C6.01 0.495 6.01 0.495 5 1 C5 1.66 5 2.32 5 3 C5.99 3.33 6.98 3.66 8 4 C8.33 4.99 8.66 5.98 9 7 C10.98 6.67 12.96 6.34 15 6 C14.34 8.97 13.68 11.94 13 15 C9.58933295 11.78422821 6.83171985 8.53563816 4.2109375 4.6484375 C2.94233059 2.92149519 1.54862292 1.4770103 0 0 Z " fill="#020B6D" transform="translate(56,74)"/>
<path d="M0 0 C1.98 0 3.96 0 6 0 C6 2.64 6 5.28 6 8 C4.02 8.33 2.04 8.66 0 9 C0 6.03 0 3.06 0 0 Z " fill="#0E1E76" transform="translate(79,182)"/>
<path d="M0 0 C0.66 0 1.32 0 2 0 C2 1.98 2 3.96 2 6 C-0.64 6 -3.28 6 -6 6 C-6 6.66 -6 7.32 -6 8 C-5.34 8.33 -4.68 8.66 -4 9 C-6.97 8.505 -6.97 8.505 -10 8 C-10.625 6.125 -10.625 6.125 -11 4 C-10.34 3.34 -9.68 2.68 -9 2 C-6.6171875 2.2421875 -6.6171875 2.2421875 -3.875 2.875 C-2.96492188 3.07867187 -2.05484375 3.28234375 -1.1171875 3.4921875 C-0.41851562 3.65976563 0.28015625 3.82734375 1 4 C0.67 2.68 0.34 1.36 0 0 Z " fill="#CED7EB" transform="translate(54,167)"/>
<path d="M0 0 C1.16945792 0.80847729 2.33550461 1.62189112 3.5 2.4375 C4.1496875 2.88996094 4.799375 3.34242188 5.46875 3.80859375 C6.22671875 4.39833984 6.22671875 4.39833984 7 5 C7 5.33 7 5.66 7 6 C5.02 6 3.04 6 1 6 C1 7.32 1 8.64 1 10 C-2.7952131 8.50902342 -4.61042731 6.24299151 -7 3 C-6.67 2.34 -6.34 1.68 -6 1 C-5.34 1 -4.68 1 -4 1 C-3.67 2.65 -3.34 4.3 -3 6 C-2.01 5.67 -1.02 5.34 0 5 C0 3.35 0 1.7 0 0 Z " fill="#F06623" transform="translate(35,128)"/>
<path d="M0 0 C0.33 0 0.66 0 1 0 C0.88513575 2.37587624 0.75841844 4.75015171 0.625 7.125 C0.5940625 7.79015625 0.563125 8.4553125 0.53125 9.140625 C0.28080367 13.39821262 -0.47528197 17.02085783 -2 21 C-2.66 21 -3.32 21 -4 21 C-2.50462963 2.50462963 -2.50462963 2.50462963 0 0 Z " fill="#FEE5C6" transform="translate(105,107)"/>
<path d="M0 0 C0.66 0.33 1.32 0.66 2 1 C0.6875 3 0.6875 3 -1 5 C-1.99 5 -2.98 5 -4 5 C-4.20625 5.721875 -4.4125 6.44375 -4.625 7.1875 C-5.96793494 9.93441238 -6.75137118 10.80159141 -9.0625 12.625 C-12.2107551 14.73408995 -12.2107551 14.73408995 -13 18 C-13.66 18 -14.32 18 -15 18 C-12.84302314 10.33074894 -6.07195083 4.73908358 0 0 Z " fill="#FCCA99" transform="translate(44,62)"/>
<path d="M0 0 C0 0.99 0 1.98 0 3 C-5.61 3 -11.22 3 -17 3 C-17.33 2.34 -17.66 1.68 -18 1 C-11.97403427 -0.0712828 -6.11090483 -0.09945415 0 0 Z " fill="#FA4601" transform="translate(64,54)"/>
<path d="M0 0 C1.98 0 3.96 0 6 0 C7.25664978 2.90600261 8 4.79604584 8 8 C7.01 7.67 6.02 7.34 5 7 C5 6.34 5 5.68 5 5 C2.03 4.505 2.03 4.505 -1 4 C-0.67 2.68 -0.34 1.36 0 0 Z " fill="#010B76" transform="translate(47,177)"/>
<path d="M0 0 C2.56687367 3.8503105 1.83288724 5.58569763 1 10 C-0.65 9.67 -2.3 9.34 -4 9 C-4.33 7.35 -4.66 5.7 -5 4 C-2 5 -2 5 -1 7 C-0.67 5.68 -0.34 4.36 0 3 C-3.96 2.67 -7.92 2.34 -12 2 C-12 1.67 -12 1.34 -12 1 C-7.95232429 0.22901415 -4.11983282 -0.37453026 0 0 Z " fill="#EBF6FC" transform="translate(84,164)"/>
<path d="M0 0 C1.52519276 0.08937803 3.04681929 0.24537146 4.5625 0.4375 C5.80193359 0.59025391 5.80193359 0.59025391 7.06640625 0.74609375 C7.70449219 0.82988281 8.34257813 0.91367188 9 1 C9 1.99 9 2.98 9 4 C8.01 4 7.02 4 6 4 C6 5.32 6 6.64 6 8 C5.01 8 4.02 8 3 8 C3 7.34 3 6.68 3 6 C2.01 6 1.02 6 0 6 C-0.38218767 4.34385343 -0.71395102 2.67542976 -1 1 C-0.67 0.67 -0.34 0.34 0 0 Z " fill="#0F1E70" transform="translate(58,12)"/>
<path d="M0 0 C0.375 2.75 0.375 2.75 0 6 C-3 8.375 -3 8.375 -6 10 C-7 7 -7 7 -5.6875 3.875 C-3.41304348 0 -3.41304348 0 0 0 Z " fill="#0A156E" transform="translate(66,108)"/>
<path d="M0 0 C1.27230469 0.00902344 2.54460938 0.01804687 3.85546875 0.02734375 C5.31919922 0.04474609 5.31919922 0.04474609 6.8125 0.0625 C6.8125 0.3925 6.8125 0.7225 6.8125 1.0625 C2.3575 1.5575 2.3575 1.5575 -2.1875 2.0625 C-2.34561388 5.11520463 -2.34561388 5.11520463 -1.1875 8.0625 C-1.8475 8.0625 -2.5075 8.0625 -3.1875 8.0625 C-3.1875 7.4025 -3.1875 6.7425 -3.1875 6.0625 C-4.6415625 5.6603125 -4.6415625 5.6603125 -6.125 5.25 C-7.135625 4.858125 -8.14625 4.46625 -9.1875 4.0625 C-9.5175 3.0725 -9.8475 2.0825 -10.1875 1.0625 C-6.62704823 -0.12431726 -3.74941663 -0.03439832 0 0 Z " fill="#273A7C" transform="translate(57.1875,64.9375)"/>
<path d="M0 0 C0.66 0.33 1.32 0.66 2 1 C2 2.65 2 4.3 2 6 C2.99 6.33 3.98 6.66 5 7 C3.68 7.99 2.36 8.98 1 10 C0.34 9.01 -0.32 8.02 -1 7 C-3.58380177 6.74969023 -3.58380177 6.74969023 -6 7 C-4.02 4.69 -2.04 2.38 0 0 Z " fill="#F3672E" transform="translate(35,59)"/>
<path d="M0 0 C-0.38671875 0.44730469 -0.7734375 0.89460938 -1.171875 1.35546875 C-4.18390075 4.8521026 -7.14321031 8.37407463 -10 12 C-10.39213671 7.55578397 -9.25321274 4.81312925 -7 1 C-4.53721199 -0.231394 -2.7204945 -0.07159196 0 0 Z " fill="#FEF5DD" transform="translate(34,60)"/>
<path d="M0 0 C0.66 0.33 1.32 0.66 2 1 C1.67 1.33 1.34 1.66 1 2 C2.32 2.33 3.64 2.66 5 3 C5 2.34 5 1.68 5 1 C7.64 0.67 10.28 0.34 13 0 C12.01 0.495 12.01 0.495 11 1 C11 1.66 11 2.32 11 3 C9.7934375 3.4640625 9.7934375 3.4640625 8.5625 3.9375 C6.10919595 4.76335345 6.10919595 4.76335345 5 6 C3.33382885 6.04063832 1.66611905 6.042721 0 6 C-0.38218767 4.34385343 -0.71395102 2.67542976 -1 1 C-0.67 0.67 -0.34 0.34 0 0 Z " fill="#F4510C" transform="translate(37,59)"/>
<path d="M0 0 C0.33 0.99 0.66 1.98 1 3 C-0.43294498 3.84114171 -1.87154405 4.67265687 -3.3125 5.5 C-4.51326172 6.19609375 -4.51326172 6.19609375 -5.73828125 6.90625 C-8 8 -8 8 -11 8 C-9.90711818 4.72135454 -9.33827067 4.21865851 -6.625 2.3125 C-6.01914062 1.87550781 -5.41328125 1.43851563 -4.7890625 0.98828125 C-3 0 -3 0 0 0 Z " fill="#FBEEDA" transform="translate(48,50)"/>
<path d="M0 0 C0.75 1.625 0.75 1.625 1 4 C-0.94303914 7.96703825 -2.49524238 9.7195791 -6.375 11.875 C-9.83948316 12.95018443 -12.40605416 13.26297165 -16 13 C-13 11 -13 11 -9.625 9.75 C-4.98381346 7.83256064 -2.24528883 4.49057766 0 0 Z " fill="#E86E2F" transform="translate(90,126)"/>
<path d="M0 0 C2.64 0.33 5.28 0.66 8 1 C8 1.66 8 2.32 8 3 C8.99 3 9.98 3 11 3 C10.67 3.99 10.34 4.98 10 6 C6.13351728 4.95902388 2.50538557 3.96301592 -1 2 C-0.67 1.34 -0.34 0.68 0 0 Z " fill="#FA4500" transform="translate(74,54)"/>
<path d="M0 0 C0.69480469 0.0928125 1.38960937 0.185625 2.10546875 0.28125 C3.09546875 1.60125 4.08546875 2.92125 5.10546875 4.28125 C-3.47453125 3.62125 -12.05453125 2.96125 -20.89453125 2.28125 C-20.89453125 1.95125 -20.89453125 1.62125 -20.89453125 1.28125 C-17.99878891 1.11285792 -15.10295451 0.94647615 -12.20703125 0.78125 C-10.98209961 0.70970703 -10.98209961 0.70970703 -9.73242188 0.63671875 C-8.14966789 0.547008 -6.56647176 0.46472523 -4.98291016 0.390625 C-3.31912449 0.30348729 -1.65825634 0.16112612 0 0 Z " fill="#E0E8FC" transform="translate(60.89453125,7.71875)"/>
<path d="M0 0 C0.66 0 1.32 0 2 0 C2.4125 0.474375 2.825 0.94875 3.25 1.4375 C5.67767846 3.60507006 7.81457329 3.60994775 11 4 C12.33737094 4.31674575 13.67288808 4.64270064 15 5 C10.5559288 7.96271413 7.09981255 6.40209176 2.0625 5.4375 C1.0415625 5.2209375 1.0415625 5.2209375 0 5 C0 3.35 0 1.7 0 0 Z " fill="#B2C0D6" transform="translate(38,186)"/>
<path d="M0 0 C1.38682245 3.85228458 0.57893208 7.01180124 0 11 C-0.08764287 14.33529824 -0.06040405 17.66435416 0 21 C-0.66 21 -1.32 21 -2 21 C-2.05791844 17.87507749 -2.09356746 14.75029234 -2.125 11.625 C-2.14175781 10.73554688 -2.15851563 9.84609375 -2.17578125 8.9296875 C-2.18222656 8.07890625 -2.18867187 7.228125 -2.1953125 6.3515625 C-2.20578613 5.56604004 -2.21625977 4.78051758 -2.22705078 3.97119141 C-2 2 -2 2 0 0 Z " fill="#D8E6F8" transform="translate(73,168)"/>
<path d="M0 0 C0.33 0.66 0.66 1.32 1 2 C1.66 2.33 2.32 2.66 3 3 C2.95875 4.19625 2.9175 5.3925 2.875 6.625 C2.86148292 10.42329953 3.57990247 13.44975618 5 17 C3.0625 16.3125 3.0625 16.3125 1 15 C-0.73857695 10.36379481 -0.08552435 4.89389339 0 0 Z " fill="#E4EFF8" transform="translate(16,26)"/>
<path d="M0 0 C6.875 3.625 6.875 3.625 8 7 C6 6 4 5 2 4 C2.66 6.31 3.32 8.62 4 11 C3.34 11 2.68 11 2 11 C-0.67927341 6.98108988 -0.15601248 4.75838077 0 0 Z " fill="#FBDEB7" transform="translate(18,113)"/>
<path d="M0 0 C2.31 0 4.62 0 7 0 C7.66 1.32 8.32 2.64 9 4 C5.62182575 4.84454356 3.32534757 5.10844919 0 4 C0 2.68 0 1.36 0 0 Z " fill="#FA4506" transform="translate(36,134)"/>
<path d="M0 0 C0.33 0 0.66 0 1 0 C1.30372936 8.00945568 1.50848663 14.69065285 -2 22 C-2.66 21.01 -3.32 20.02 -4 19 C-3.125 15.8125 -3.125 15.8125 -2 13 C-1.34 13 -0.68 13 0 13 C0 8.71 0 4.42 0 0 Z " fill="#11267A" transform="translate(78,82)"/>
<path d="M0 0 C1.2065625 0.0309375 1.2065625 0.0309375 2.4375 0.0625 C2.4375 0.7225 2.4375 1.3825 2.4375 2.0625 C1.7775 2.0625 1.1175 2.0625 0.4375 2.0625 C1.0975 3.3825 1.7575 4.7025 2.4375 6.0625 C-2.4375 7.0625 -2.4375 7.0625 -3.5625 7.0625 C-3.60504356 5.06295254 -3.60330783 3.06208364 -3.5625 1.0625 C-2.5625 0.0625 -2.5625 0.0625 0 0 Z " fill="#FEF5E6" transform="translate(109.5625,103.9375)"/>
<path d="M0 0 C0.66 0 1.32 0 2 0 C2.99 2.97 3.98 5.94 5 9 C4.01 8.67 3.02 8.34 2 8 C2 8.99 2 9.98 2 11 C2.66 11.33 3.32 11.66 4 12 C3.01 12 2.02 12 1 12 C-0.3271261 8.0186217 -0.06915913 4.14954773 0 0 Z " fill="#335295" transform="translate(16,92)"/>
<path d="M0 0 C0.74507812 0.00451172 1.49015625 0.00902344 2.2578125 0.01367188 C4.0885764 0.02540754 5.91929873 0.0433415 7.75 0.0625 C7.75 0.3925 7.75 0.7225 7.75 1.0625 C6.90695313 1.12308594 6.06390625 1.18367188 5.1953125 1.24609375 C4.09960938 1.32988281 3.00390625 1.41367187 1.875 1.5 C0.78445312 1.58121094 -0.30609375 1.66242187 -1.4296875 1.74609375 C-4.19728971 1.89251703 -4.19728971 1.89251703 -6.25 3.0625 C-8.9223621 3.19665472 -11.57250488 3.10568541 -14.25 3.0625 C-10.31886197 -0.86863803 -5.26465746 -0.06045985 0 0 Z " fill="#FACB94" transform="translate(62.25,57.9375)"/>
<path d="M0 0 C-0.33 5.61 -0.66 11.22 -1 17 C-1.99 16.67 -2.98 16.34 -4 16 C-3.67 15.67 -3.34 15.34 -3 15 C-2.92728259 12.64686445 -2.91629132 10.29166332 -2.9375 7.9375 C-2.94652344 6.64714844 -2.95554687 5.35679687 -2.96484375 4.02734375 C-2.97644531 3.02832031 -2.98804687 2.02929688 -3 1 C-1 0 -1 0 0 0 Z " fill="#000E6E" transform="translate(70,169)"/>
<path d="M0 0 C3.71888239 0.50712033 6.73454239 1.11608215 10 3 C10 4.65 10 6.3 10 8 C9.278125 7.401875 8.55625 6.80375 7.8125 6.1875 C5.07771401 3.96991716 5.07771401 3.96991716 2.1875 2.3125 C1.465625 1.879375 0.74375 1.44625 0 1 C0 0.67 0 0.34 0 0 Z " fill="#FEE5C6" transform="translate(26,120)"/>
<path d="M0 0 C1.65 0 3.3 0 5 0 C5.1953125 6.0546875 5.1953125 6.0546875 5 8 C4.34 8.66 3.68 9.32 3 10 C2.01 6.7 1.02 3.4 0 0 Z " fill="#000C62" transform="translate(25,20)"/>
<path d="M0 0 C2.88437779 1.29299694 4.87219421 2.65941363 7 5 C6.01 5 5.02 5 4 5 C4 5.66 4 6.32 4 7 C4.66 7.33 5.32 7.66 6 8 C5.67 8.99 5.34 9.98 5 11 C2.27042661 8.64264116 1.11106604 6.41866474 0 3 C0 2.01 0 1.02 0 0 Z " fill="#EC7C31" transform="translate(20,117)"/>
<path d="M0 0 C0.33 0 0.66 0 1 0 C1.33 2.97 1.66 5.94 2 9 C-2 11 -2 11 -4 11 C-3.71125 10.29875 -3.4225 9.5975 -3.125 8.875 C-1.97866412 5.94547497 -0.97374346 2.99078347 0 0 Z " fill="#C7D6EB" transform="translate(78,96)"/>
<path d="M0 0 C0 0.66 0 1.32 0 2 C-2.90600261 3.25664978 -4.79604584 4 -8 4 C-7.67 4.99 -7.34 5.98 -7 7 C-7.66 7 -8.32 7 -9 7 C-9.6875 5.1875 -9.6875 5.1875 -10 3 C-7.70195295 -1.02158234 -4.18378338 -0.23681793 0 0 Z " fill="#EEF3F9" transform="translate(55,62)"/>
<path d="M0 0 C0.99 0.33 1.98 0.66 3 1 C3.05399736 2.45792884 3.09279177 3.91642712 3.125 5.375 C3.14820313 6.18710938 3.17140625 6.99921875 3.1953125 7.8359375 C3 10 3 10 1 12 C0.67 11.67 0.34 11.34 0 11 C0 8.66666667 0 6.33333333 0 4 C-0.33 3.34 -0.66 2.68 -1 2 C-0.67 1.34 -0.34 0.68 0 0 Z " fill="#FAFEEF" transform="translate(34,166)"/>
<path d="M0 0 C0 0.99 0 1.98 0 3 C-1.32 3.33 -2.64 3.66 -4 4 C-3.67 4.99 -3.34 5.98 -3 7 C-5.70879335 8.35439668 -8.00933268 8.06501451 -11 8 C-8.80861021 5.64270057 -6.56068027 3.97942902 -3.8125 2.3125 C-3.09707031 1.87550781 -2.38164063 1.43851563 -1.64453125 0.98828125 C-1.10183594 0.66214844 -0.55914062 0.33601562 0 0 Z " fill="#FCE1B9" transform="translate(94,136)"/>
<path d="M0 0 C2.475 0.495 2.475 0.495 5 1 C5.33 2.65 5.66 4.3 6 6 C4.68 6.33 3.36 6.66 2 7 C1.34 4.69 0.68 2.38 0 0 Z " fill="#FA4203" transform="translate(30,127)"/>
<path d="M0 0 C4.8 3.44615385 4.8 3.44615385 5.8125 6.25 C5.874375 6.8275 5.93625 7.405 6 8 C7.65 8.33 9.3 8.66 11 9 C11 9.66 11 10.32 11 11 C4.77081866 9.92187246 4.77081866 9.92187246 2.64453125 7.37890625 C0 2.78677798 0 2.78677798 0 0 Z " fill="#E5E9F1" transform="translate(21,110)"/>
<path d="M0 0 C2.6486859 3.19668988 4.93992341 6.39486597 7 10 C4.03 9.505 4.03 9.505 1 9 C0.67 6.03 0.34 3.06 0 0 Z " fill="#1F3179" transform="translate(30,38)"/>
<path d="M0 0 C8.57142857 -0.14285714 8.57142857 -0.14285714 12 1 C12 2.65 12 4.3 12 6 C11.34 5.67 10.68 5.34 10 5 C10 4.34 10 3.68 10 3 C6.7 2.34 3.4 1.68 0 1 C0 0.67 0 0.34 0 0 Z " fill="#697DA4" transform="translate(72,166)"/>
<path d="M0 0 C5.90562081 5.60276846 5.90562081 5.60276846 6.09765625 10.48046875 C6.08605469 11.37378906 6.07445313 12.26710938 6.0625 13.1875 C6.05347656 14.08855469 6.04445313 14.98960938 6.03515625 15.91796875 C6.02355469 16.60503906 6.01195313 17.29210937 6 18 C5.67 18 5.34 18 5 18 C4.67 14.04 4.34 10.08 4 6 C3.01 6 2.02 6 1 6 C0.67 4.02 0.34 2.04 0 0 Z " fill="#FEC89B" transform="translate(86,106)"/>
<path d="M0 0 C0.33 0 0.66 0 1 0 C1 1.65 1 3.3 1 5 C3.97 5.495 3.97 5.495 7 6 C6.67 6.66 6.34 7.32 6 8 C4.02 8 2.04 8 0 8 C-0.66 6.02 -1.32 4.04 -2 2 C-1.34 2 -0.68 2 0 2 C0 1.34 0 0.68 0 0 Z " fill="#000771" transform="translate(30,42)"/>
<path d="M0 0 C0.66 0.33 1.32 0.66 2 1 C2 1.99 2 2.98 2 4 C0.68 4 -0.64 4 -2 4 C-2.0825 4.61875 -2.165 5.2375 -2.25 5.875 C-3 8 -3 8 -5.0625 9.25 C-5.701875 9.4975 -6.34125 9.745 -7 10 C-5.6062718 5.56541027 -3.39417765 3.12621626 0 0 Z " fill="#3C488E" transform="translate(27,16)"/>
<path d="M0 0 C0.99 0.33 1.98 0.66 3 1 C2.67 2.32 2.34 3.64 2 5 C1.34 5 0.68 5 0 5 C0 6.65 0 8.3 0 10 C-0.66 10 -1.32 10 -2 10 C-2.25 3.375 -2.25 3.375 0 0 Z " fill="#415296" transform="translate(40,168)"/>
<path d="M0 0 C2.93200474 2.85276137 5.64315404 5.65079784 8 9 C5.3364031 8.64005447 3.41816548 8.28838998 1.1875 6.75 C-0.39364795 4.41988723 -0.22337696 2.75498245 0 0 Z " fill="#FEE1BC" transform="translate(24,127)"/>
<path d="M0 0 C0.99 0.33 1.98 0.66 3 1 C2.88601335 2.62580966 2.75844341 4.25067157 2.625 5.875 C2.52058594 7.23238281 2.52058594 7.23238281 2.4140625 8.6171875 C2 11 2 11 0 13 C0 8.71 0 4.42 0 0 Z " fill="#F14E05" transform="translate(23,79)"/>
<path d="M0 0 C2.50037734 2.17424117 3.43628586 3.73045798 4 7 C4.66 7 5.32 7 6 7 C6 8.32 6 9.64 6 11 C5.34 11 4.68 11 4 11 C3.67 9.35 3.34 7.7 3 6 C2.01 6 1.02 6 0 6 C0 4.02 0 2.04 0 0 Z " fill="#FDDBBE" transform="translate(92,69)"/>
<path d="M0 0 C2.31 0 4.62 0 7 0 C6.01 0.495 6.01 0.495 5 1 C5 1.66 5 2.32 5 3 C5.99 3.33 6.98 3.66 8 4 C9 7 9 7 9 10 C5.7776693 7.85177953 4.91562433 6.2725249 3 3 C1.41754725 1.24850835 1.41754725 1.24850835 0 0 Z " fill="#323C86" transform="translate(56,74)"/>
<path d="M0 0 C0.60328125 0.33773437 1.2065625 0.67546875 1.828125 1.0234375 C2.62734375 1.46945313 3.4265625 1.91546875 4.25 2.375 C5.43335938 3.03628906 5.43335938 3.03628906 6.640625 3.7109375 C8.73914197 4.85747823 10.8536077 5.94649552 13 7 C5.375 6.125 5.375 6.125 2 5 C2 4.34 2 3.68 2 3 C1.34 3 0.68 3 0 3 C0 2.01 0 1.02 0 0 Z " fill="#FFEAC7" transform="translate(32,136)"/>
<path d="M0 0 C0.75 1.625 0.75 1.625 1 4 C-2.17808219 9.5890411 -2.17808219 9.5890411 -5 11 C-5 9.02 -5 7.04 -5 5 C-3.68 5 -2.36 5 -1 5 C-0.67 3.35 -0.34 1.7 0 0 Z " fill="#FEECD1" transform="translate(90,122)"/>
<path d="M0 0 C-2.22856908 2.22856908 -2.95970785 2.53347241 -6 3 C-8.08674954 2.91620565 -10.17149066 2.76583244 -12.25 2.5625 C-13.32765625 2.46066406 -14.4053125 2.35882813 -15.515625 2.25390625 C-16.33546875 2.17011719 -17.1553125 2.08632812 -18 2 C-18 1.67 -18 1.34 -18 1 C-17.16855469 0.93941406 -16.33710937 0.87882812 -15.48046875 0.81640625 C-13.85044922 0.69072266 -13.85044922 0.69072266 -12.1875 0.5625 C-11.10855469 0.48128906 -10.02960937 0.40007812 -8.91796875 0.31640625 C-1.47272727 -0.49090909 -1.47272727 -0.49090909 0 0 Z " fill="#111965" transform="translate(59,112)"/>
<path d="M0 0 C0.66 1.32 1.32 2.64 2 4 C1.278125 4.2475 0.55625 4.495 -0.1875 4.75 C-3.24713266 6.10983674 -5.4673738 7.82917754 -8 10 C-8 7 -8 7 -6.25 5.17578125 C-5.5075 4.56089844 -4.765 3.94601563 -4 3.3125 C-3.2575 2.68988281 -2.515 2.06726563 -1.75 1.42578125 C-1.1725 0.95527344 -0.595 0.48476562 0 0 Z " fill="#D0DEF2" transform="translate(73,107)"/>
<path d="M0 0 C0 0.66 0 1.32 0 2 C-0.66 2 -1.32 2 -2 2 C-1.67 2.99 -1.34 3.98 -1 5 C-4.3 4.01 -7.6 3.02 -11 2 C-11 1.67 -11 1.34 -11 1 C-7.26562152 0.12132271 -3.83225427 -0.08912219 0 0 Z " fill="#FEFAF0" transform="translate(88,50)"/>
<path d="M0 0 C0.33 0 0.66 0 1 0 C1.08090971 1.62418745 1.13914995 3.24951745 1.1875 4.875 C1.22230469 5.77992187 1.25710937 6.68484375 1.29296875 7.6171875 C1.19628906 8.40351563 1.09960938 9.18984375 1 10 C0.01 10.66 -0.98 11.32 -2 12 C-1.85962479 10.18706911 -1.71255111 8.3746557 -1.5625 6.5625 C-1.48128906 5.55316406 -1.40007812 4.54382813 -1.31640625 3.50390625 C-1 1 -1 1 0 0 Z " fill="#EE580D" transform="translate(99,120)"/>
<path d="M0 0 C1.98 0 3.96 0 6 0 C6 1.65 6 3.3 6 5 C3.5625 4.1875 3.5625 4.1875 1 3 C0.67 2.01 0.34 1.02 0 0 Z " fill="#F9FDF5" transform="translate(43,184)"/>
<path d="M0 0 C2.64 0.33 5.28 0.66 8 1 C8.33 2.32 8.66 3.64 9 5 C5.9168649 3.80100302 2.93720508 2.52299523 0 1 C0 0.67 0 0.34 0 0 Z " fill="#6578A2" transform="translate(46,166)"/>
<path d="M0 0 C2.31 0 4.62 0 7 0 C7.33 0.66 7.66 1.32 8 2 C6.88625 2.309375 5.7725 2.61875 4.625 2.9375 C1.2054845 3.82326483 1.2054845 3.82326483 -1 5 C-0.67 3.35 -0.34 1.7 0 0 Z " fill="#FDEFC1" transform="translate(85,101)"/>
<path d="M0 0 C0.33 0 0.66 0 1 0 C1 3.3 1 6.6 1 10 C0.34 10 -0.32 10 -1 10 C-2.23076923 4.58461538 -2.23076923 4.58461538 -1.0625 1.625 C-0.5365625 0.820625 -0.5365625 0.820625 0 0 Z " fill="#EFBD8B" transform="translate(25,88)"/>
<path d="M0 0 C0.66 0.33 1.32 0.66 2 1 C2 3.31 2 5.62 2 8 C1.01 8.495 1.01 8.495 0 9 C-1.36623674 6.26752652 -1.128426 4.01801098 -1 1 C-0.67 0.67 -0.34 0.34 0 0 Z " fill="#020777" transform="translate(26,32)"/>
<path d="M0 0 C0.99 0.495 0.99 0.495 2 1 C2 1.99 2 2.98 2 4 C2.66 4 3.32 4 4 4 C4.33 4.66 4.66 5.32 5 6 C5.66 4.68 6.32 3.36 7 2 C7 3.98 7 5.96 7 8 C5.35 7.67 3.7 7.34 2 7 C1.34 4.69 0.68 2.38 0 0 Z " fill="#B6C6E6" transform="translate(67,24)"/>
<path d="M0 0 C2.64 0 5.28 0 8 0 C8.33 0.99 8.66 1.98 9 3 C6.36 3 3.72 3 1 3 C0.67 2.01 0.34 1.02 0 0 Z " fill="#010E6A" transform="translate(45,11)"/>
<path d="M0 0 C3 1 3 1 4 3 C4.66 2.01 5.32 1.02 6 0 C6 1.98 6 3.96 6 6 C4.35 5.67 2.7 5.34 1 5 C0.67 3.35 0.34 1.7 0 0 Z " fill="#B9CBE2" transform="translate(79,168)"/>
<path d="M0 0 C4.31392226 0.4793247 6.16569547 1.7457985 9 5 C8.01 5.495 8.01 5.495 7 6 C4.875 5.0625 4.875 5.0625 3 4 C3 3.01 3 2.02 3 1 C2.01 1.33 1.02 1.66 0 2 C0 1.34 0 0.68 0 0 Z " fill="#182773" transform="translate(64,66)"/>
<path d="M0 0 C0.33 0 0.66 0 1 0 C1 4.29 1 8.58 1 13 C0.01 13.33 -0.98 13.66 -2 14 C-2.33 13.01 -2.66 12.02 -3 11 C-2.01 11 -1.02 11 0 11 C0 7.37 0 3.74 0 0 Z " fill="#0A206F" transform="translate(69,175)"/>
<path d="M0 0 C1.16945792 0.80847729 2.33550461 1.62189112 3.5 2.4375 C4.47453125 3.11619141 4.47453125 3.11619141 5.46875 3.80859375 C5.9740625 4.20175781 6.479375 4.59492188 7 5 C7 5.33 7 5.66 7 6 C5.02 6 3.04 6 1 6 C0.67 4.02 0.34 2.04 0 0 Z " fill="#EB5E1E" transform="translate(35,128)"/>
<path d="M0 0 C0.66 0.33 1.32 0.66 2 1 C1.34 2.32 0.68 3.64 0 5 C-0.99 5 -1.98 5 -3 5 C-3 5.99 -3 6.98 -3 8 C-3.66 8 -4.32 8 -5 8 C-4.45773019 4.20411134 -2.79872437 2.52788007 0 0 Z " fill="#B2C7E6" transform="translate(37,18)"/>
<path d="M0 0 C1.65 0 3.3 0 5 0 C4.19152271 1.16945792 3.37810888 2.33550461 2.5625 3.5 C2.11003906 4.1496875 1.65757813 4.799375 1.19140625 5.46875 C0.79824219 5.9740625 0.40507812 6.479375 0 7 C-0.33 7 -0.66 7 -1 7 C-0.67 4.69 -0.34 2.38 0 0 Z " fill="#E6F4FC" transform="translate(22,16)"/>
<path d="M0 0 C-2.88087546 2.40072955 -5.56404834 4.47291037 -9 6 C-9 3 -9 3 -7.875 1.3125 C-5.23540902 -0.53521368 -3.14195927 -0.20946395 0 0 Z " fill="#0B1E75" transform="translate(44,14)"/>
<path d="M0 0 C1.32 0.33 2.64 0.66 4 1 C4 2.32 4 3.64 4 5 C2.68 5.33 1.36 5.66 0 6 C0 4.02 0 2.04 0 0 Z " fill="#051083" transform="translate(40,173)"/>
<path d="M0 0 C0.8353125 0.37125 0.8353125 0.37125 1.6875 0.75 C0.6975 2.235 0.6975 2.235 -0.3125 3.75 C-3.9375 3.9375 -3.9375 3.9375 -7.3125 3.75 C-2.88173077 -0.31153846 -2.88173077 -0.31153846 0 0 Z " fill="#F0F7FD" transform="translate(51.3125,162.25)"/>
<path d="M0 0 C2.64 0.33 5.28 0.66 8 1 C8.33 1.99 8.66 2.98 9 4 C5.65626525 3.44271087 2.96687001 2.64826111 0 1 C0 0.67 0 0.34 0 0 Z " fill="#F2732C" transform="translate(36,138)"/>
<path d="M0 0 C1 3 1 3 0 6 C-2.0625 7.1875 -2.0625 7.1875 -4 8 C-2.25 2.25 -2.25 2.25 0 0 Z " fill="#F3713D" transform="translate(28,66)"/>
<path d="M0 0 C2.1875 0.3125 2.1875 0.3125 4 1 C3.67 1.99 3.34 2.98 3 4 C0.03 3.505 0.03 3.505 -3 3 C-1.75 1.4375 -1.75 1.4375 0 0 Z " fill="#253A82" transform="translate(37,48)"/>
<path d="M0 0 C2 2 2 2 2.125 5.125 C2.08375 6.07375 2.0425 7.0225 2 8 C1.34 7.67 0.68 7.34 0 7 C0 6.34 0 5.68 0 5 C-0.66 5 -1.32 5 -2 5 C-2 4.01 -2 3.02 -2 2 C-1.34 2 -0.68 2 0 2 C0 1.34 0 0.68 0 0 Z " fill="#314389" transform="translate(71,23)"/>
<path d="M0 0 C0.66 0 1.32 0 2 0 C3.38232443 1.62626404 4.71937515 3.2925002 6 5 C4.02 5 2.04 5 0 5 C0 3.35 0 1.7 0 0 Z " fill="#3A528F" transform="translate(38,186)"/>
<path d="M0 0 C0 0.66 0 1.32 0 2 C-1.32 2.33 -2.64 2.66 -4 3 C-4 3.66 -4 4.32 -4 5 C-4.66 5 -5.32 5 -6 5 C-6.33 4.01 -6.66 3.02 -7 2 C-4 0 -4 0 0 0 Z " fill="#FAFCEB" transform="translate(85,174)"/>
<path d="M0 0 C1.32 0.33 2.64 0.66 4 1 C4.33 3.64 4.66 6.28 5 9 C2.67527795 6.14693203 1.2491742 3.45925163 0 0 Z " fill="#CADCEE" transform="translate(18,94)"/>
<path d="M0 0 C-0.66 0 -1.32 0 -2 0 C-2 0.66 -2 1.32 -2 2 C-3.98 2.66 -5.96 3.32 -8 4 C-8 2.68 -8 1.36 -8 0 C-4.71303767 -0.79953138 -3.28976808 -1.09658936 0 0 Z " fill="#E9611A" transform="translate(50,60)"/>
<path d="M0 0 C0 0.66 0 1.32 0 2 C-1.98 2.33 -3.96 2.66 -6 3 C-6 2.01 -6 1.02 -6 0 C-3.50907189 -1.24546405 -2.58919267 -0.7767578 0 0 Z " fill="#000A6F" transform="translate(38,15)"/>
<path d="M0 0 C-2.60314689 1.73543126 -3.98694043 2.61121812 -7 3 C-7.66 2.34 -8.32 1.68 -9 1 C-5.64919071 -1.10976881 -3.77897651 -1.0497157 0 0 Z " fill="#E9F3FB" transform="translate(37,11)"/>
</svg>
